999
dxfrw 0.6.3
  0
SECTION
  2
HEADER
  9
$ACADVER
  1
AC1021
  9
$DWGCODEPAGE
  3
ANSI_1252
  9
$INSBASE
 10
0
 20
0
 30
0
  9
$EXTMIN
 10
-5000
 20
-4700
 30
0
  9
$EXTMAX
 10
5000
 20
4710
 30
0
  9
$LIMMIN
 10
0
 20
0
  9
$LIMMAX
 10
420
 20
297
  9
$ORTHOMODE
 70
    0
  9
$REGENMODE
 70
    1
  9
$FILLMODE
 70
    1
  9
$QTEXTMODE
 70
    0
  9
$MIRRTEXT
 70
    0
  9
$LTSCALE
 40
1
  9
$ATTMODE
 70
    0
  9
$TEXTSIZE
 40
2.5
  9
$TRACEWID
 40
15.68
  9
$TEXTSTYLE
  7
STANDARD
  9
$CLAYER
  8
0
  9
$CELTYPE
  6
BYLAYER
  9
$CECOLOR
 62
  256
  9
$CELTSCALE
 40
1
  9
$DISPSILH
 70
    0
  9
$DIMSCALE
 40
2.5
  9
$DIMASZ
 40
2.5
  9
$DIMEXO
 40
0.625
  9
$DIMDLI
 40
3.75
  9
$DIMRND
 40
0
  9
$DIMDLE
 40
0
  9
$DIMEXE
 40
1.25
  9
$DIMTP
 40
0
  9
$DIMTM
 40
0
  9
$DIMTXT
 40
2.5
  9
$DIMCEN
 40
2.5
  9
$DIMTSZ
 40
0
  9
$DIMTOL
 70
    0
  9
$DIMLIM
 70
    0
  9
$DIMTIH
 70
    0
  9
$DIMTOH
 70
    0
  9
$DIMSE1
 70
    0
  9
$DIMSE2
 70
    0
  9
$DIMTAD
 70
    1
  9
$DIMZIN
 70
    8
  9
$DIMBLK
  1

  9
$DIMASO
 70
    1
  9
$DIMSHO
 70
    1
  9
$DIMPOST
  1

  9
$DIMAPOST
  1

  9
$DIMALT
 70
    0
  9
$DIMALTD
 70
    3
  9
$DIMALTF
 40
0.03937
  9
$DIMLFAC
 40
1
  9
$DIMTOFL
 70
    1
  9
$DIMTVP
 40
0
  9
$DIMTIX
 70
    0
  9
$DIMSOXD
 70
    0
  9
$DIMSAH
 70
    0
  9
$DIMBLK1
  1

  9
$DIMBLK2
  1

  9
$DIMSTYLE
  2
Standard
  9
$DIMCLRD
 70
    0
  9
$DIMCLRE
 70
    0
  9
$DIMCLRT
 70
    0
  9
$DIMTFAC
 40
1
  9
$DIMGAP
 40
0.625
  9
$DIMJUST
 70
    0
  9
$DIMSD1
 70
    0
  9
$DIMSD2
 70
    0
  9
$DIMTOLJ
 70
    0
  9
$DIMTZIN
 70
    8
  9
$DIMALTZ
 70
    0
  9
$DIMALTTZ
 70
    0
  9
$DIMUPT
 70
    0
  9
$DIMDEC
 70
    2
  9
$DIMTDEC
 70
    2
  9
$DIMALTU
 70
    2
  9
$DIMALTTD
 70
    3
  9
$DIMTXSTY
  7
STANDARD
  9
$DIMAUNIT
 70
    0
  9
$DIMADEC
 70
    0
  9
$DIMALTRND
 40
0
  9
$DIMAZIN
 70
    0
  9
$DIMDSEP
 70
   44
  9
$DIMATFIT
 70
    3
  9
$DIMFRAC
 70
    0
  9
$DIMLDRBLK
  1
STANDARD
  9
$DIMLUNIT
 70
    2
  9
$DIMLWD
 70
   -2
  9
$DIMLWE
 70
   -2
  9
$DIMTMOVE
 70
    0
  9
$DIMFXL
 40
1
  9
$DIMFXLON
 70
    0
  9
$DIMJOGANG
 40
0.7854
  9
$DIMTFILL
 70
    0
  9
$DIMTFILLCLR
 70
    0
  9
$DIMARCSYM
 70
    0
  9
$DIMLTYPE
  6

  9
$DIMLTEX1
  6

  9
$DIMLTEX2
  6

  9
$LUNITS
 70
    2
  9
$LUPREC
 70
    3
  9
$SKETCHINC
 40
1
  9
$FILLETRAD
 40
0
  9
$AUNITS
 70
    0
  9
$AUPREC
 70
    2
  9
$MENU
  1
.
  9
$ELEVATION
 40
0
  9
$PELEVATION
 40
0
  9
$THICKNESS
 40
0
  9
$LIMCHECK
 70
    0
  9
$CHAMFERA
 40
0
  9
$CHAMFERB
 40
0
  9
$CHAMFERC
 40
0
  9
$CHAMFERD
 40
0
  9
$SKPOLY
 70
    0
  9
$USRTIMER
 70
    1
  9
$ANGBASE
 50
0
  9
$ANGDIR
 70
    0
  9
$PDMODE
 70
   34
  9
$PDSIZE
 40
0
  9
$PLINEWID
 40
0
  9
$SPLFRAME
 70
    0
  9
$SPLINETYPE
 70
    2
  9
$SPLINESEGS
 70
    8
  9
$HANDSEED
  5
20000
  9
$SURFTAB1
 70
    6
  9
$SURFTAB2
 70
    6
  9
$SURFTYPE
 70
    6
  9
$SURFU
 70
    6
  9
$SURFV
 70
    6
  9
$UCSBASE
  2

  9
$UCSNAME
  2

  9
$UCSORG
 10
0
 20
0
 30
0
  9
$UCSXDIR
 10
1
 20
0
 30
0
  9
$UCSYDIR
 10
0
 20
1
 30
0
  9
$UCSORTHOREF
  2

  9
$UCSORTHOVIEW
 70
    0
  9
$UCSORGTOP
 10
0
 20
0
 30
0
  9
$UCSORGBOTTOM
 10
0
 20
0
 30
0
  9
$UCSORGLEFT
 10
0
 20
0
 30
0
  9
$UCSORGRIGHT
 10
0
 20
0
 30
0
  9
$UCSORGFRONT
 10
0
 20
0
 30
0
  9
$UCSORGBACK
 10
0
 20
0
 30
0
  9
$PUCSBASE
  2

  9
$PUCSNAME
  2

  9
$PUCSORG
 10
0
 20
0
 30
0
  9
$PUCSXDIR
 10
1
 20
0
 30
0
  9
$PUCSYDIR
 10
0
 20
1
 30
0
  9
$PUCSORTHOREF
  2

  9
$PUCSORTHOVIEW
 70
    0
  9
$PUCSORGTOP
 10
0
 20
0
 30
0
  9
$PUCSORGBOTTOM
 10
0
 20
0
 30
0
  9
$PUCSORGLEFT
 10
0
 20
0
 30
0
  9
$PUCSORGRIGHT
 10
0
 20
0
 30
0
  9
$PUCSORGFRONT
 10
0
 20
0
 30
0
  9
$PUCSORGBACK
 10
0
 20
0
 30
0
  9
$USERI1
 70
    0
  9
$USERI2
 70
    0
  9
$USERI3
 70
    0
  9
$USERI4
 70
    0
  9
$USERI5
 70
    0
  9
$USERR1
 40
0
  9
$USERR2
 40
0
  9
$USERR3
 40
0
  9
$USERR4
 40
0
  9
$USERR5
 40
0
  9
$WORLDVIEW
 70
    1
  9
$SHADEDGE
 70
    3
  9
$SHADEDIF
 70
   70
  9
$TILEMODE
 70
    1
  9
$MAXACTVP
 70
   64
  9
$PINSBASE
 10
0
 20
0
 30
0
  9
$PLIMCHECK
 70
    0
  9
$PEXTMIN
 10
0
 20
0
 30
0
  9
$PEXTMAX
 10
0
 20
0
 30
0
  9
$SNAPSTYLE
 70
    0
  9
$PLIMMIN
 10
0
 20
0
  9
$PLIMMAX
 10
2.099999999999999e+89
 20
2.969999999999998e+89
  9
$UNITMODE
 70
    0
  9
$VISRETAIN
 70
    1
  9
$PLINEGEN
 70
    0
  9
$PSLTSCALE
 70
    1
  9
$TREEDEPTH
 70
 3020
  9
$CMLSTYLE
  2
Standard
  9
$CMLJUST
 70
    0
  9
$CMLSCALE
 40
20
  9
$PROXYGRAPHICS
 70
    1
  9
$MEASUREMENT
 70
    1
  9
$CELWEIGHT
370
   -1
  9
$ENDCAPS
280
    0
  9
$JOINSTYLE
280
    0
  9
$LWDISPLAY
290
    0
  9
$INSUNITS
 70
    4
  9
$HYPERLINKBASE
  1

  9
$STYLESHEET
  1

  9
$XEDIT
290
    1
  9
$CEPSNTYPE
380
    0
  9
$PSTYLEMODE
290
    1
  9
$EXTNAMES
290
    1
  9
$PSVPSCALE
 40
1
  9
$OLESTARTUP
290
    0
  9
$SORTENTS
280
  127
  9
$INDEXCTL
280
    0
  9
$HIDETEXT
280
    1
  9
$XCLIPFRAME
290
    0
  9
$HALOGAP
280
    0
  9
$OBSCOLOR
 70
  257
  9
$OBSLTYPE
280
    0
  9
$INTERSECTIONDISPLAY
280
    0
  9
$INTERSECTIONCOLOR
 70
  257
  9
$DIMASSOC
280
    1
  9
$PROJECTNAME
  1

  9
$CAMERADISPLAY
290
    0
  9
$LENSLENGTH
 40
50
  9
$CAMERAHEIGHT
 40
0
  9
$STEPSPERSEC
 40
2
  9
$STEPSIZE
 40
50
  9
$3DDWFPREC
 40
2
  9
$PSOLWIDTH
 40
5
  9
$PSOLHEIGHT
 40
80
  9
$LOFTANG1
 40
1.570796326794897
  9
$LOFTANG2
 40
1.570796326794897
  9
$LOFTMAG1
 40
0
  9
$LOFTMAG2
 40
0
  9
$LOFTPARAM
 70
    7
  9
$LOFTNORMALS
280
    1
  9
$LATITUDE
 40
1
  9
$LONGITUDE
 40
1
  9
$NORTHDIRECTION
 40
0
  9
$TIMEZONE
 70
-8000
  9
$LIGHTGLYPHDISPLAY
280
    1
  9
$TILEMODELIGHTSYNCH
280
    1
  9
$SOLIDHIST
280
    1
  9
$SHOWHIST
280
    1
  9
$DWFFRAME
280
    2
  9
$DGNFRAME
280
    0
  9
$REALWORLDSCALE
290
    1
  9
$INTERFERECOLOR
 62
    1
  9
$CSHADOW
280
    0
  9
$SHADOWPLANELOCATION
 40
0
  0
ENDSEC
  0
SECTION
  2
CLASSES
  0
ENDSEC
  0
SECTION
  2
TABLES
  0
TABLE
  2
VPORT
  5
8
330
0
100
AcDbSymbolTable
 70
    1
  0
VPORT
  5
31
330
2
100
AcDbSymbolTableRecord
100
AcDbViewportTableRecord
  2
*ACTIVE
 70
    0
 10
0
 20
0
 11
1
 21
1
 12
4395.614143920596
 22
2416.712158808933
 13
0
 23
0
 14
10
 24
10
 15
10
 25
10
 16
0
 26
0
 36
1
 17
0
 27
0
 37
0
 40
9643.49875930521
 41
1.822033898305085
 42
50
 43
0
 44
0
 50
0
 51
0
 71
    0
 72
  100
 73
    1
 74
    3
 75
    0
 76
    1
 77
    0
 78
    0
281
    0
 65
    1
110
0
120
0
130
0
111
1
121
0
131
0
112
0
122
1
132
0
 79
    0
146
0
348
10020
 60
    7
 61
    5
292
1
282
    1
141
0
142
0
 63
  250
421
3358443
  0
ENDTAB
  0
TABLE
  2
LTYPE
  5
5
330
0
100
AcDbSymbolTable
 70
    4
  0
LTYPE
  5
14
330
5
100
AcDbSymbolTableRecord
100
AcDbLinetypeTableRecord
  2
ByBlock
 70
    0
  3

 72
   65
 73
    0
 40
0
  0
LTYPE
  5
15
330
5
100
AcDbSymbolTableRecord
100
AcDbLinetypeTableRecord
  2
ByLayer
 70
    0
  3

 72
   65
 73
    0
 40
0
  0
LTYPE
  5
16
330
5
100
AcDbSymbolTableRecord
100
AcDbLinetypeTableRecord
  2
Continuous
 70
    0
  3
Solid line
 72
   65
 73
    0
 40
0
  0
LTYPE
  5
32
330
5
100
AcDbSymbolTableRecord
100
AcDbLinetypeTableRecord
  2
DOT
 70
    0
  3
Dot . . . . . . . . . . . . . . . . . . . . . .
 72
   65
 73
    2
 40
6.35
 49
0
 74
    0
 49
-6.35
 74
    0
  0
LTYPE
  5
33
330
5
100
AcDbSymbolTableRecord
100
AcDbLinetypeTableRecord
  2
DOTTINY
 70
    0
  3
Dot (.15x) .....................................
 72
   65
 73
    2
 40
0.9525
 49
0
 74
    0
 49
-0.9525
 74
    0
  0
LTYPE
  5
34
330
5
100
AcDbSymbolTableRecord
100
AcDbLinetypeTableRecord
  2
DOT2
 70
    0
  3
Dot (.5x) .....................................
 72
   65
 73
    2
 40
3.175
 49
0
 74
    0
 49
-3.175
 74
    0
  0
LTYPE
  5
35
330
5
100
AcDbSymbolTableRecord
100
AcDbLinetypeTableRecord
  2
DOTX2
 70
    0
  3
Dot (2x) .  .  .  .  .  .  .  .  .  .  .  .  .
 72
   65
 73
    2
 40
12.7
 49
0
 74
    0
 49
-12.7
 74
    0
  0
LTYPE
  5
36
330
5
100
AcDbSymbolTableRecord
100
AcDbLinetypeTableRecord
  2
DASHED
 70
    0
  3
Dashed _ _ _ _ _ _ _ _ _ _ _ _ _ _ _ _ _
 72
   65
 73
    2
 40
19.05
 49
12.7
 74
    0
 49
-6.35
 74
    0
  0
LTYPE
  5
37
330
5
100
AcDbSymbolTableRecord
100
AcDbLinetypeTableRecord
  2
DASHEDTINY
 70
    0
  3
Dashed (.15x) _ _ _ _ _ _ _ _ _ _ _ _ _ _ _ _ _
 72
   65
 73
    2
 40
2.8575
 49
1.905
 74
    0
 49
-0.9525
 74
    0
  0
LTYPE
  5
38
330
5
100
AcDbSymbolTableRecord
100
AcDbLinetypeTableRecord
  2
DASHED2
 70
    0
  3
Dashed (.5x) _ _ _ _ _ _ _ _ _ _ _ _ _ _ _ _ _
 72
   65
 73
    2
 40
9.524999999999999
 49
6.35
 74
    0
 49
-3.175
 74
    0
  0
LTYPE
  5
39
330
5
100
AcDbSymbolTableRecord
100
AcDbLinetypeTableRecord
  2
DASHEDX2
 70
    0
  3
Dashed (2x) ____  ____  ____  ____  ____  ___
 72
   65
 73
    2
 40
38.09999999999999
 49
25.4
 74
    0
 49
-12.7
 74
    0
  0
LTYPE
  5
3A
330
5
100
AcDbSymbolTableRecord
100
AcDbLinetypeTableRecord
  2
DASHDOT
 70
    0
  3
Dash dot __ . __ . __ . __ . __ . __ . __ . __
 72
   65
 73
    4
 40
25.4
 49
12.7
 74
    0
 49
-6.35
 74
    0
 49
0
 74
    0
 49
-6.35
 74
    0
  0
LTYPE
  5
3B
330
5
100
AcDbSymbolTableRecord
100
AcDbLinetypeTableRecord
  2
DASHDOTTINY
 70
    0
  3
Dash dot (.15x) _._._._._._._._._._._._._._._.
 72
   65
 73
    4
 40
3.81
 49
1.905
 74
    0
 49
-0.9525
 74
    0
 49
0
 74
    0
 49
-0.9525
 74
    0
  0
LTYPE
  5
3C
330
5
100
AcDbSymbolTableRecord
100
AcDbLinetypeTableRecord
  2
DASHDOT2
 70
    0
  3
Dash dot (.5x) _._._._._._._._._._._._._._._.
 72
   65
 73
    4
 40
12.7
 49
6.35
 74
    0
 49
-3.175
 74
    0
 49
0
 74
    0
 49
-3.175
 74
    0
  0
LTYPE
  5
3D
330
5
100
AcDbSymbolTableRecord
100
AcDbLinetypeTableRecord
  2
DASHDOTX2
 70
    0
  3
Dash dot (2x) ____  .  ____  .  ____  .  ___
 72
   65
 73
    4
 40
50.8
 49
25.4
 74
    0
 49
-12.7
 74
    0
 49
0
 74
    0
 49
-12.7
 74
    0
  0
LTYPE
  5
3E
330
5
100
AcDbSymbolTableRecord
100
AcDbLinetypeTableRecord
  2
DIVIDE
 70
    0
  3
Divide ____ . . ____ . . ____ . . ____ . . ____
 72
   65
 73
    6
 40
31.75
 49
12.7
 74
    0
 49
-6.35
 74
    0
 49
0
 74
    0
 49
-6.35
 74
    0
 49
0
 74
    0
 49
-6.35
 74
    0
  0
LTYPE
  5
3F
330
5
100
AcDbSymbolTableRecord
100
AcDbLinetypeTableRecord
  2
DIVIDETINY
 70
    0
  3
Divide (.15x) __..__..__..__..__..__..__..__.._
 72
   65
 73
    6
 40
4.7625
 49
1.905
 74
    0
 49
-0.9525
 74
    0
 49
0
 74
    0
 49
-0.9525
 74
    0
 49
0
 74
    0
 49
-0.9525
 74
    0
  0
LTYPE
  5
40
330
5
100
AcDbSymbolTableRecord
100
AcDbLinetypeTableRecord
  2
DIVIDE2
 70
    0
  3
Divide (.5x) __..__..__..__..__..__..__..__.._
 72
   65
 73
    6
 40
15.875
 49
6.35
 74
    0
 49
-3.175
 74
    0
 49
0
 74
    0
 49
-3.175
 74
    0
 49
0
 74
    0
 49
-3.175
 74
    0
  0
LTYPE
  5
41
330
5
100
AcDbSymbolTableRecord
100
AcDbLinetypeTableRecord
  2
DIVIDEX2
 70
    0
  3
Divide (2x) ________  .  .  ________  .  .  _
 72
   65
 73
    6
 40
63.5
 49
25.4
 74
    0
 49
-12.7
 74
    0
 49
0
 74
    0
 49
-12.7
 74
    0
 49
0
 74
    0
 49
-12.7
 74
    0
  0
LTYPE
  5
42
330
5
100
AcDbSymbolTableRecord
100
AcDbLinetypeTableRecord
  2
BORDER
 70
    0
  3
Border __ __ . __ __ . __ __ . __ __ . __ __ .
 72
   65
 73
    6
 40
44.45
 49
12.7
 74
    0
 49
-6.35
 74
    0
 49
12.7
 74
    0
 49
-6.35
 74
    0
 49
0
 74
    0
 49
-6.35
 74
    0
  0
LTYPE
  5
43
330
5
100
AcDbSymbolTableRecord
100
AcDbLinetypeTableRecord
  2
BORDERTINY
 70
    0
  3
Border (.15x) __.__.__.__.__.__.__.__.__.__.__.
 72
   65
 73
    6
 40
6.6675
 49
1.905
 74
    0
 49
-0.9525
 74
    0
 49
1.905
 74
    0
 49
-0.9525
 74
    0
 49
0
 74
    0
 49
-0.9525
 74
    0
  0
LTYPE
  5
44
330
5
100
AcDbSymbolTableRecord
100
AcDbLinetypeTableRecord
  2
BORDER2
 70
    0
  3
Border (.5x) __.__.__.__.__.__.__.__.__.__.__.
 72
   65
 73
    6
 40
22.225
 49
6.35
 74
    0
 49
-3.175
 74
    0
 49
6.35
 74
    0
 49
-3.175
 74
    0
 49
0
 74
    0
 49
-3.175
 74
    0
  0
LTYPE
  5
45
330
5
100
AcDbSymbolTableRecord
100
AcDbLinetypeTableRecord
  2
BORDERX2
 70
    0
  3
Border (2x) ____  ____  .  ____  ____  .  ___
 72
   65
 73
    6
 40
88.89999999999999
 49
25.4
 74
    0
 49
-12.7
 74
    0
 49
25.4
 74
    0
 49
-12.7
 74
    0
 49
0
 74
    0
 49
-12.7
 74
    0
  0
LTYPE
  5
46
330
5
100
AcDbSymbolTableRecord
100
AcDbLinetypeTableRecord
  2
CENTER
 70
    0
  3
Center ____ _ ____ _ ____ _ ____ _ ____ _ ____
 72
   65
 73
    4
 40
50.8
 49
31.75
 74
    0
 49
-6.35
 74
    0
 49
6.35
 74
    0
 49
-6.35
 74
    0
  0
LTYPE
  5
47
330
5
100
AcDbSymbolTableRecord
100
AcDbLinetypeTableRecord
  2
CENTERTINY
 70
    0
  3
Center (.15x) ___ _ ___ _ ___ _ ___ _ ___ _ ___
 72
   65
 73
    4
 40
7.619999999999999
 49
4.7625
 74
    0
 49
-0.9525
 74
    0
 49
0.9525
 74
    0
 49
-0.9525
 74
    0
  0
LTYPE
  5
48
330
5
100
AcDbSymbolTableRecord
100
AcDbLinetypeTableRecord
  2
CENTER2
 70
    0
  3
Center (.5x) ___ _ ___ _ ___ _ ___ _ ___ _ ___
 72
   65
 73
    4
 40
28.575
 49
19.05
 74
    0
 49
-3.175
 74
    0
 49
3.175
 74
    0
 49
-3.175
 74
    0
  0
LTYPE
  5
49
330
5
100
AcDbSymbolTableRecord
100
AcDbLinetypeTableRecord
  2
CENTERX2
 70
    0
  3
Center (2x) ________  __  ________  __  _____
 72
   65
 73
    4
 40
101.6
 49
63.5
 74
    0
 49
-12.7
 74
    0
 49
12.7
 74
    0
 49
-12.7
 74
    0
  0
ENDTAB
  0
TABLE
  2
LAYER
  5
2
330
0
100
AcDbSymbolTable
 70
    1
  0
LAYER
  5
10
330
2
100
AcDbSymbolTableRecord
100
AcDbLayerTableRecord
  2
0
 70
    0
 62
    7
  6
CONTINUOUS
370
    0
390
F
  0
LAYER
  5
4A
330
2
100
AcDbSymbolTableRecord
100
AcDbLayerTableRecord
  2
6(0)
 70
    0
 62
    7
  6
CONTINUOUS
370
   -3
390
F
  0
ENDTAB
  0
TABLE
  2
STYLE
  5
3
330
0
100
AcDbSymbolTable
 70
    3
  0
STYLE
  5
4B
330
2
100
AcDbSymbolTableRecord
100
AcDbTextStyleTableRecord
  2
Standard
 70
    0
 40
0
 41
1
 50
0
 71
    0
 42
1
  3
txt
  4

  0
ENDTAB
  0
TABLE
  2
VIEW
  5
6
330
0
100
AcDbSymbolTable
 70
    0
  0
ENDTAB
  0
TABLE
  2
UCS
  5
7
330
0
100
AcDbSymbolTable
 70
    0
  0
ENDTAB
  0
TABLE
  2
APPID
  5
9
330
0
100
AcDbSymbolTable
 70
    1
  0
APPID
  5
12
330
9
100
AcDbSymbolTableRecord
100
AcDbRegAppTableRecord
  2
ACAD
 70
    0
  0
APPID
  5
4C
330
9
100
AcDbSymbolTableRecord
100
AcDbRegAppTableRecord
  2
LibreCad
 70
    0
  0
ENDTAB
  0
TABLE
  2
DIMSTYLE
  5
A
330
0
100
AcDbSymbolTable
 70
    1
100
AcDbDimStyleTable
 71
    1
  0
DIMSTYLE
105
4D
330
A
100
AcDbSymbolTableRecord
100
AcDbDimStyleTableRecord
  2
Standard
 70
    0
 40
1
 41
2.5
 42
0.625
 43
0.38
 44
1.25
 45
0
 46
0
 47
0
 48
0
 49
1
140
2.5
141
0.09
142
2.5
143
25.4
144
1
145
0
146
1
147
0.625
148
0
 71
    0
 72
    0
 73
    0
 74
    1
 75
    0
 76
    0
 77
    0
 78
    1
 79
    0
170
    0
171
    2
172
    0
173
    0
174
    0
175
    0
176
    0
177
    0
178
    0
179
    0
271
    2
272
    4
273
    2
274
    2
275
    0
276
    0
277
    2
278
    0
279
    0
280
    0
281
    0
282
    0
283
    1
284
    0
285
    0
286
    0
288
    0
289
    3
340
standard
341

371
   -2
372
   -2
  0
ENDTAB
  0
TABLE
  2
BLOCK_RECORD
  5
1
330
0
100
AcDbSymbolTable
 70
    2
  0
BLOCK_RECORD
  5
1F
330
1
100
AcDbSymbolTableRecord
100
AcDbBlockTableRecord
  2
*Model_Space
 70
    0
280
    1
281
    0
  0
BLOCK_RECORD
  5
1E
330
1
100
AcDbSymbolTableRecord
100
AcDbBlockTableRecord
  2
*Paper_Space
 70
    0
280
    1
281
    0
  0
BLOCK_RECORD
  5
4E
330
1
100
AcDbSymbolTableRecord
100
AcDbBlockTableRecord
  2
MainSymbol
 70
    0
280
    1
281
    0
  0
BLOCK_RECORD
  5
51
330
1
100
AcDbSymbolTableRecord
100
AcDbBlockTableRecord
  2
SideCoupledQWResonators_PlusDCBridges_4K_LaserWriter1
 70
    0
280
    1
281
    0
  0
ENDTAB
  0
ENDSEC
  0
SECTION
  2
BLOCKS
  0
BLOCK
  5
20
330
1F
100
AcDbEntity
  8
0
100
AcDbBlockBegin
  2
*Model_Space
 70
    0
 10
0
 20
0
 30
0
  3
*Model_Space
  1

  0
ENDBLK
  5
21
330
1F
100
AcDbEntity
  8
0
100
AcDbBlockEnd
  0
BLOCK
  5
1C
330
1B
100
AcDbEntity
  8
0
100
AcDbBlockBegin
  2
*Paper_Space
 70
    0
 10
0
 20
0
 30
0
  3
*Paper_Space
  1

  0
ENDBLK
  5
1D
330
1F
100
AcDbEntity
  8
0
100
AcDbBlockEnd
  0
BLOCK
  5
4F
330
4E
100
AcDbEntity
  8
0
100
AcDbBlockBegin
  2
MainSymbol
 70
    0
 10
0
 20
0
  3
MainSymbol
  1

  0
LWPOLYLINE
  5
54
100
AcDbEntity
  8
6(0)
  6
ByLayer
 62
  256
370
   -1
100
AcDbPolyline
 90
   26
 70
    1
 43
0
 10
-5000
 20
3050
 10
-4500
 20
3050
 10
-4000
 20
3450
 10
4000
 20
3450
 10
4500
 20
3050
 10
5000
 20
3050
 10
5000
 20
3950
 10
4500
 20
3950
 10
4000
 20
3550
 10
4000
 20
3525
 10
4500
 20
3750
 10
4900
 20
3750
 10
4900
 20
3250
 10
4500
 20
3250
 10
4000
 20
3475
 10
-4000
 20
3475
 10
-4500
 20
3250
 10
-4900
 20
3250
 10
-4900
 20
3750
 10
-4500
 20
3750
 10
-4000
 20
3525
 10
4000
 20
3525
 10
4000
 20
3550
 10
-4000
 20
3550
 10
-4500
 20
3950
 10
-5000
 20
3950
  0
LWPOLYLINE
  5
55
100
AcDbEntity
  8
6(0)
  6
ByLayer
 62
  256
370
   -1
100
AcDbPolyline
 90
    4
 70
    1
 43
0
 10
-4710
 20
-4300
 10
-4690
 20
-4300
 10
-4690
 20
-4280
 10
-4710
 20
-4280
  0
LWPOLYLINE
  5
56
100
AcDbEntity
  8
6(0)
  6
ByLayer
 62
  256
370
   -1
100
AcDbPolyline
 90
  118
 70
    1
 43
0
 10
-5000
 20
-4240
 10
5000
 20
-4240
 10
5000
 20
-3010
 10
3400
 20
-3010
 10
3400
 20
-3422
 10
3102
 20
-3422
 10
3102
 20
-3612
 10
3300
 20
-3612
 10
3800
 20
-3372
 10
4100
 20
-3372
 10
4100
 20
-3872
 10
3800
 20
-3872
 10
3300
 20
-3632
 10
3102
 20
-3632
 10
3102
 20
-3822
 10
3400
 20
-3822
 10
3400
 20
-4122
 10
3100
 20
-4122
 10
3100
 20
-3632
 10
2700
 20
-3632
 10
2700
 20
-4122
 10
2400
 20
-4122
 10
2400
 20
-3822
 10
2698
 20
-3822
 10
2698
 20
-3632
 10
2500
 20
-3632
 10
2000
 20
-3872
 10
1700
 20
-3872
 10
1700
 20
-3372
 10
2000
 20
-3372
 10
2500
 20
-3612
 10
2698
 20
-3612
 10
2698
 20
-3422
 10
2400
 20
-3422
 10
2400
 20
-3122
 10
2700
 20
-3122
 10
2700
 20
-3612
 10
3100
 20
-3612
 10
3100
 20
-3122
 10
3400
 20
-3122
 10
3400
 20
-3010
 10
500
 20
-3010
 10
500
 20
-3422
 10
202
 20
-3422
 10
202
 20
-3597
 10
400
 20
-3597
 10
900
 20
-3372
 10
1200
 20
-3372
 10
1200
 20
-3872
 10
900
 20
-3872
 10
400
 20
-3647
 10
202
 20
-3647
 10
202
 20
-3822
 10
500
 20
-3822
 10
500
 20
-4122
 10
200
 20
-4122
 10
200
 20
-3647
 10
-200
 20
-3647
 10
-200
 20
-4122
 10
-500
 20
-4122
 10
-500
 20
-3822
 10
-202
 20
-3822
 10
-202
 20
-3647
 10
-400
 20
-3647
 10
-900
 20
-3872
 10
-1200
 20
-3872
 10
-1200
 20
-3372
 10
-900
 20
-3372
 10
-400
 20
-3597
 10
-202
 20
-3597
 10
-202
 20
-3422
 10
-500
 20
-3422
 10
-500
 20
-3122
 10
-200
 20
-3122
 10
-200
 20
-3597
 10
200
 20
-3597
 10
200
 20
-3122
 10
500
 20
-3122
 10
500
 20
-3010
 10
-2400
 20
-3010
 10
-2400
 20
-3422
 10
-2698
 20
-3422
 10
-2698
 20
-3572
 10
-2500
 20
-3572
 10
-2000
 20
-3372
 10
-1700
 20
-3372
 10
-1700
 20
-3872
 10
-2000
 20
-3872
 10
-2500
 20
-3672
 10
-2698
 20
-3672
 10
-2698
 20
-3822
 10
-2400
 20
-3822
 10
-2400
 20
-4122
 10
-2700
 20
-4122
 10
-2700
 20
-3672
 10
-3100
 20
-3672
 10
-3100
 20
-4122
 10
-3400
 20
-4122
 10
-3400
 20
-3822
 10
-3102
 20
-3822
 10
-3102
 20
-3672
 10
-3300
 20
-3672
 10
-3800
 20
-3872
 10
-4100
 20
-3872
 10
-4100
 20
-3372
 10
-3800
 20
-3372
 10
-3300
 20
-3572
 10
-3102
 20
-3572
 10
-3102
 20
-3422
 10
-3400
 20
-3422
 10
-3400
 20
-3122
 10
-3100
 20
-3122
 10
-3100
 20
-3572
 10
-2700
 20
-3572
 10
-2700
 20
-3122
 10
-2400
 20
-3122
 10
-2400
 20
-3010
 10
-5000
 20
-3010
  0
LWPOLYLINE
  5
57
100
AcDbEntity
  8
6(0)
  6
ByLayer
 62
  256
370
   -1
100
AcDbPolyline
 90
    4
 70
    1
 43
0
 10
-4710
 20
4290
 10
-4690
 20
4290
 10
-4690
 20
4310
 10
-4710
 20
4310
  0
LWPOLYLINE
  5
58
100
AcDbEntity
  8
6(0)
  6
ByLayer
 62
  256
370
   -1
100
AcDbPolyline
 90
    4
 70
    1
 43
0
 10
-4610
 20
-4600
 10
-4590
 20
-4600
 10
-4590
 20
-4580
 10
-4610
 20
-4580
  0
LWPOLYLINE
  5
59
100
AcDbEntity
  8
6(0)
  6
ByLayer
 62
  256
370
   -1
100
AcDbPolyline
 90
    4
 70
    1
 43
0
 10
-4610
 20
4590
 10
-4590
 20
4590
 10
-4590
 20
4610
 10
-4610
 20
4610
  0
LWPOLYLINE
  5
5A
100
AcDbEntity
  8
6(0)
  6
ByLayer
 62
  256
370
   -1
100
AcDbPolyline
 90
    4
 70
    1
 43
0
 10
-4310
 20
-4700
 10
-4290
 20
-4700
 10
-4290
 20
-4680
 10
-4310
 20
-4680
  0
LWPOLYLINE
  5
5B
100
AcDbEntity
  8
6(0)
  6
ByLayer
 62
  256
370
   -1
100
AcDbPolyline
 90
    4
 70
    1
 43
0
 10
-4310
 20
4690
 10
-4290
 20
4690
 10
-4290
 20
4710
 10
-4310
 20
4710
  0
LWPOLYLINE
  5
5C
100
AcDbEntity
  8
6(0)
  6
ByLayer
 62
  256
370
   -1
100
AcDbPolyline
 90
    4
 70
    1
 43
0
 10
-4210
 20
-4400
 10
-4190
 20
-4400
 10
-4190
 20
-4380
 10
-4210
 20
-4380
  0
LWPOLYLINE
  5
5D
100
AcDbEntity
  8
6(0)
  6
ByLayer
 62
  256
370
   -1
100
AcDbPolyline
 90
    4
 70
    1
 43
0
 10
-4210
 20
4390
 10
-4190
 20
4390
 10
-4190
 20
4410
 10
-4210
 20
4410
  0
LWPOLYLINE
  5
5E
100
AcDbEntity
  8
6(0)
  6
ByLayer
 62
  256
370
   -1
100
AcDbPolyline
 90
    4
 70
    1
 43
0
 10
-3810
 20
-4500
 10
-3790
 20
-4500
 10
-3790
 20
-4480
 10
-3810
 20
-4480
  0
LWPOLYLINE
  5
5F
100
AcDbEntity
  8
6(0)
  6
ByLayer
 62
  256
370
   -1
100
AcDbPolyline
 90
    4
 70
    1
 43
0
 10
-3810
 20
4490
 10
-3790
 20
4490
 10
-3790
 20
4510
 10
-3810
 20
4510
  0
LWPOLYLINE
  5
60
100
AcDbEntity
  8
6(0)
  6
ByLayer
 62
  256
370
   -1
100
AcDbPolyline
 90
  219
 70
    1
 43
0
 10
-3300
 20
3396
 10
-2700
 20
3396
 10
-2699.22
 20
3395.996
 10
-2698.44
 20
3395.984
 10
-2697.66
 20
3395.964
 10
-2696.88
 20
3395.936
 10
-2696.1
 20
3395.9
 10
-2695.321
 20
3395.856
 10
-2694.543
 20
3395.804
 10
-2693.765
 20
3395.744
 10
-2692.988
 20
3395.676
 10
-2692.211
 20
3395.6
 10
-2691.435
 20
3395.516
 10
-2690.66
 20
3395.424
 10
-2689.887
 20
3395.324
 10
-2689.114
 20
3395.216
 10
-2688.342
 20
3395.101
 10
-2687.572
 20
3394.977
 10
-2686.803
 20
3394.845
 10
-2686.035
 20
3394.706
 10
-2685.269
 20
3394.559
 10
-2684.504
 20
3394.403
 10
-2683.741
 20
3394.24
 10
-2682.98
 20
3394.07
 10
-2682.22
 20
3393.891
 10
-2681.463
 20
3393.705
 10
-2680.707
 20
3393.51
 10
-2679.953
 20
3393.308
 10
-2679.202
 20
3393.099
 10
-2678.452
 20
3392.881
 10
-2677.705
 20
3392.656
 10
-2676.96
 20
3392.424
 10
-2676.218
 20
3392.183
 10
-2675.478
 20
3391.935
 10
-2674.741
 20
3391.68
 10
-2674.006
 20
3391.417
 10
-2673.275
 20
3391.146
 10
-2672.546
 20
3390.868
 10
-2671.82
 20
3390.582
 10
-2671.096
 20
3390.289
 10
-2670.376
 20
3389.989
 10
-2669.659
 20
3389.681
 10
-2668.946
 20
3389.366
 10
-2668.235
 20
3389.043
 10
-2667.528
 20
3388.714
 10
-2666.824
 20
3388.377
 10
-2666.124
 20
3388.032
 10
-2665.427
 20
3387.681
 10
-2664.734
 20
3387.323
 10
-2664.045
 20
3386.957
 10
-2663.359
 20
3386.584
 10
-2662.678
 20
3386.205
 10
-2662
 20
3385.818
 10
-2661.326
 20
3385.424
 10
-2660.657
 20
3385.024
 10
-2659.991
 20
3384.617
 10
-2659.33
 20
3384.202
 10
-2658.673
 20
3383.781
 10
-2658.02
 20
3383.354
 10
-2657.372
 20
3382.919
 10
-2656.728
 20
3382.479
 10
-2656.089
 20
3382.031
 10
-2655.455
 20
3381.577
 10
-2654.825
 20
3381.116
 10
-2654.2
 20
3380.649
 10
-2653.58
 20
3380.176
 10
-2652.964
 20
3379.696
 10
-2652.354
 20
3379.21
 10
-2651.748
 20
3378.718
 10
-2651.148
 20
3378.219
 10
-2650.553
 20
3377.715
 10
-2649.963
 20
3377.204
 10
-2649.378
 20
3376.687
 10
-2648.799
 20
3376.165
 10
-2648.225
 20
3375.636
 10
-2647.657
 20
3375.102
 10
-2647.094
 20
3374.561
 10
-2646.536
 20
3374.015
 10
-2645.985
 20
3373.464
 10
-2645.439
 20
3372.906
 10
-2644.898
 20
3372.343
 10
-2644.364
 20
3371.775
 10
-2643.835
 20
3371.201
 10
-2643.313
 20
3370.622
 10
-2642.796
 20
3370.037
 10
-2642.285
 20
3369.447
 10
-2641.781
 20
3368.852
 10
-2641.282
 20
3368.252
 10
-2640.79
 20
3367.646
 10
-2640.304
 20
3367.036
 10
-2639.824
 20
3366.42
 10
-2639.351
 20
3365.8
 10
-2638.884
 20
3365.175
 10
-2638.423
 20
3364.545
 10
-2637.969
 20
3363.911
 10
-2637.521
 20
3363.272
 10
-2637.081
 20
3362.628
 10
-2636.646
 20
3361.98
 10
-2636.219
 20
3361.327
 10
-2635.798
 20
3360.67
 10
-2635.383
 20
3360.009
 10
-2634.976
 20
3359.343
 10
-2634.576
 20
3358.674
 10
-2634.182
 20
3358
 10
-2633.795
 20
3357.322
 10
-2633.416
 20
3356.641
 10
-2633.043
 20
3355.955
 10
-2632.677
 20
3355.266
 10
-2632.319
 20
3354.573
 10
-2631.968
 20
3353.876
 10
-2631.623
 20
3353.176
 10
-2631.286
 20
3352.472
 10
-2630.957
 20
3351.765
 10
-2630.634
 20
3351.054
 10
-2630.319
 20
3350.341
 10
-2630.011
 20
3349.624
 10
-2629.711
 20
3348.904
 10
-2629.418
 20
3348.18
 10
-2629.132
 20
3347.454
 10
-2628.854
 20
3346.725
 10
-2628.583
 20
3345.994
 10
-2628.32
 20
3345.259
 10
-2628.065
 20
3344.522
 10
-2627.817
 20
3343.782
 10
-2627.576
 20
3343.04
 10
-2627.344
 20
3342.295
 10
-2627.119
 20
3341.548
 10
-2626.901
 20
3340.798
 10
-2626.692
 20
3340.047
 10
-2626.49
 20
3339.293
 10
-2626.295
 20
3338.537
 10
-2626.109
 20
3337.78
 10
-2625.93
 20
3337.02
 10
-2625.76
 20
3336.259
 10
-2625.597
 20
3335.496
 10
-2625.441
 20
3334.731
 10
-2625.294
 20
3333.965
 10
-2625.155
 20
3333.197
 10
-2625.023
 20
3332.428
 10
-2624.899
 20
3331.658
 10
-2624.784
 20
3330.886
 10
-2624.676
 20
3330.113
 10
-2624.576
 20
3329.34
 10
-2624.484
 20
3328.565
 10
-2624.4
 20
3327.789
 10
-2624.324
 20
3327.012
 10
-2624.256
 20
3326.235
 10
-2624.196
 20
3325.457
 10
-2624.144
 20
3324.679
 10
-2624.1
 20
3323.9
 10
-2624.064
 20
3323.12
 10
-2624.036
 20
3322.34
 10
-2624.016
 20
3321.56
 10
-2624.004
 20
3320.78
 10
-2624
 20
3320
 10
-2624
 20
-595
 10
-2580
 20
-595
 10
-2580
 20
3320
 10
-2580.457
 20
3330.459
 10
-2581.823
 20
3340.838
 10
-2584.089
 20
3351.058
 10
-2587.237
 20
3361.042
 10
-2591.243
 20
3370.714
 10
-2596.077
 20
3380
 10
-2601.702
 20
3388.829
 10
-2608.075
 20
3397.135
 10
-2615.147
 20
3404.853
 10
-2622.865
 20
3411.925
 10
-2631.171
 20
3418.298
 10
-2640
 20
3423.923
 10
-2649.286
 20
3428.757
 10
-2658.958
 20
3432.763
 10
-2668.942
 20
3435.911
 10
-2679.162
 20
3438.177
 10
-2689.541
 20
3439.543
 10
-2700
 20
3440
 10
-3300
 20
3440
 10
-3300
 20
3420
 10
-2700
 20
3420
 10
-2691.284
 20
3419.619
 10
-2682.635
 20
3418.481
 10
-2674.118
 20
3416.593
 10
-2665.798
 20
3413.969
 10
-2657.738
 20
3410.631
 10
-2650
 20
3406.603
 10
-2642.642
 20
3401.915
 10
-2635.721
 20
3396.604
 10
-2629.289
 20
3390.711
 10
-2623.396
 20
3384.279
 10
-2618.085
 20
3377.358
 10
-2613.397
 20
3370
 10
-2609.369
 20
3362.262
 10
-2606.031
 20
3354.202
 10
-2603.407
 20
3345.882
 10
-2601.519
 20
3337.365
 10
-2600.381
 20
3328.716
 10
-2600
 20
3320
 10
-2600
 20
-565
 10
-2604
 20
-565
 10
-2604
 20
3320
 10
-2604.365
 20
3328.367
 10
-2605.458
 20
3336.67
 10
-2607.271
 20
3344.847
 10
-2609.79
 20
3352.834
 10
-2612.994
 20
3360.571
 10
-2616.862
 20
3368
 10
-2621.361
 20
3375.063
 10
-2626.46
 20
3381.708
 10
-2632.118
 20
3387.882
 10
-2638.292
 20
3393.54
 10
-2644.937
 20
3398.639
 10
-2652
 20
3403.138
 10
-2659.429
 20
3407.006
 10
-2667.166
 20
3410.21
 10
-2675.153
 20
3412.729
 10
-2683.33
 20
3414.542
 10
-2691.633
 20
3415.635
 10
-2700
 20
3416
 10
-3300
 20
3416
  0
LWPOLYLINE
  5
61
100
AcDbEntity
  8
6(0)
  6
ByLayer
 62
  256
370
   -1
100
AcDbPolyline
 90
  219
 70
    1
 43
0
 10
-1500
 20
3396
 10
-900
 20
3396
 10
-899.22
 20
3395.996
 10
-898.4400000000001
 20
3395.984
 10
-897.66
 20
3395.964
 10
-896.88
 20
3395.936
 10
-896.1
 20
3395.9
 10
-895.321
 20
3395.856
 10
-894.543
 20
3395.804
 10
-893.765
 20
3395.744
 10
-892.9880000000001
 20
3395.676
 10
-892.211
 20
3395.6
 10
-891.4349999999999
 20
3395.516
 10
-890.66
 20
3395.424
 10
-889.8869999999999
 20
3395.324
 10
-889.114
 20
3395.216
 10
-888.342
 20
3395.101
 10
-887.572
 20
3394.977
 10
-886.803
 20
3394.845
 10
-886.035
 20
3394.706
 10
-885.269
 20
3394.559
 10
-884.504
 20
3394.403
 10
-883.741
 20
3394.24
 10
-882.98
 20
3394.07
 10
-882.22
 20
3393.891
 10
-881.463
 20
3393.705
 10
-880.707
 20
3393.51
 10
-879.953
 20
3393.308
 10
-879.202
 20
3393.099
 10
-878.452
 20
3392.881
 10
-877.705
 20
3392.656
 10
-876.96
 20
3392.424
 10
-876.218
 20
3392.183
 10
-875.478
 20
3391.935
 10
-874.741
 20
3391.68
 10
-874.006
 20
3391.417
 10
-873.275
 20
3391.146
 10
-872.546
 20
3390.868
 10
-871.8200000000001
 20
3390.582
 10
-871.096
 20
3390.289
 10
-870.376
 20
3389.989
 10
-869.659
 20
3389.681
 10
-868.946
 20
3389.366
 10
-868.235
 20
3389.043
 10
-867.528
 20
3388.714
 10
-866.824
 20
3388.377
 10
-866.124
 20
3388.032
 10
-865.427
 20
3387.681
 10
-864.734
 20
3387.323
 10
-864.045
 20
3386.957
 10
-863.359
 20
3386.584
 10
-862.678
 20
3386.205
 10
-862
 20
3385.818
 10
-861.326
 20
3385.424
 10
-860.657
 20
3385.024
 10
-859.991
 20
3384.617
 10
-859.33
 20
3384.202
 10
-858.673
 20
3383.781
 10
-858.02
 20
3383.354
 10
-857.372
 20
3382.919
 10
-856.728
 20
3382.479
 10
-856.0890000000001
 20
3382.031
 10
-855.455
 20
3381.577
 10
-854.825
 20
3381.116
 10
-854.2
 20
3380.649
 10
-853.58
 20
3380.176
 10
-852.9640000000001
 20
3379.696
 10
-852.354
 20
3379.21
 10
-851.748
 20
3378.718
 10
-851.148
 20
3378.219
 10
-850.553
 20
3377.715
 10
-849.963
 20
3377.204
 10
-849.378
 20
3376.687
 10
-848.799
 20
3376.165
 10
-848.225
 20
3375.636
 10
-847.657
 20
3375.102
 10
-847.0940000000001
 20
3374.561
 10
-846.5359999999999
 20
3374.015
 10
-845.985
 20
3373.464
 10
-845.439
 20
3372.906
 10
-844.898
 20
3372.343
 10
-844.364
 20
3371.775
 10
-843.835
 20
3371.201
 10
-843.313
 20
3370.622
 10
-842.796
 20
3370.037
 10
-842.285
 20
3369.447
 10
-841.7809999999999
 20
3368.852
 10
-841.282
 20
3368.252
 10
-840.79
 20
3367.646
 10
-840.304
 20
3367.036
 10
-839.824
 20
3366.42
 10
-839.351
 20
3365.8
 10
-838.884
 20
3365.175
 10
-838.423
 20
3364.545
 10
-837.9690000000001
 20
3363.911
 10
-837.521
 20
3363.272
 10
-837.081
 20
3362.628
 10
-836.646
 20
3361.98
 10
-836.2190000000001
 20
3361.327
 10
-835.798
 20
3360.67
 10
-835.383
 20
3360.009
 10
-834.976
 20
3359.343
 10
-834.576
 20
3358.674
 10
-834.182
 20
3358
 10
-833.795
 20
3357.322
 10
-833.4160000000001
 20
3356.641
 10
-833.043
 20
3355.955
 10
-832.677
 20
3355.266
 10
-832.319
 20
3354.573
 10
-831.968
 20
3353.876
 10
-831.623
 20
3353.176
 10
-831.2859999999999
 20
3352.472
 10
-830.957
 20
3351.765
 10
-830.634
 20
3351.054
 10
-830.319
 20
3350.341
 10
-830.011
 20
3349.624
 10
-829.711
 20
3348.904
 10
-829.418
 20
3348.18
 10
-829.1319999999999
 20
3347.454
 10
-828.854
 20
3346.725
 10
-828.583
 20
3345.994
 10
-828.3200000000001
 20
3345.259
 10
-828.0650000000001
 20
3344.522
 10
-827.817
 20
3343.782
 10
-827.576
 20
3343.04
 10
-827.3440000000001
 20
3342.295
 10
-827.119
 20
3341.548
 10
-826.901
 20
3340.798
 10
-826.692
 20
3340.047
 10
-826.49
 20
3339.293
 10
-826.295
 20
3338.537
 10
-826.109
 20
3337.78
 10
-825.9299999999999
 20
3337.02
 10
-825.76
 20
3336.259
 10
-825.597
 20
3335.496
 10
-825.441
 20
3334.731
 10
-825.294
 20
3333.965
 10
-825.155
 20
3333.197
 10
-825.023
 20
3332.428
 10
-824.899
 20
3331.658
 10
-824.784
 20
3330.886
 10
-824.676
 20
3330.113
 10
-824.576
 20
3329.34
 10
-824.484
 20
3328.565
 10
-824.4
 20
3327.789
 10
-824.324
 20
3327.012
 10
-824.256
 20
3326.235
 10
-824.196
 20
3325.457
 10
-824.144
 20
3324.679
 10
-824.1
 20
3323.9
 10
-824.064
 20
3323.12
 10
-824.0359999999999
 20
3322.34
 10
-824.016
 20
3321.56
 10
-824.004
 20
3320.78
 10
-824
 20
3320
 10
-824
 20
-225
 10
-780
 20
-225
 10
-780
 20
3320
 10
-780.457
 20
3330.459
 10
-781.823
 20
3340.838
 10
-784.0890000000001
 20
3351.058
 10
-787.237
 20
3361.042
 10
-791.2430000000001
 20
3370.714
 10
-796.077
 20
3380
 10
-801.702
 20
3388.829
 10
-808.075
 20
3397.135
 10
-815.147
 20
3404.853
 10
-822.865
 20
3411.925
 10
-831.171
 20
3418.298
 10
-840
 20
3423.923
 10
-849.2859999999999
 20
3428.757
 10
-858.958
 20
3432.763
 10
-868.942
 20
3435.911
 10
-879.162
 20
3438.177
 10
-889.5410000000001
 20
3439.543
 10
-900
 20
3440
 10
-1500
 20
3440
 10
-1500
 20
3420
 10
-900
 20
3420
 10
-891.284
 20
3419.619
 10
-882.635
 20
3418.481
 10
-874.1180000000001
 20
3416.593
 10
-865.798
 20
3413.969
 10
-857.7380000000001
 20
3410.631
 10
-850
 20
3406.603
 10
-842.6420000000001
 20
3401.915
 10
-835.721
 20
3396.604
 10
-829.289
 20
3390.711
 10
-823.396
 20
3384.279
 10
-818.085
 20
3377.358
 10
-813.397
 20
3370
 10
-809.369
 20
3362.262
 10
-806.0309999999999
 20
3354.202
 10
-803.407
 20
3345.882
 10
-801.519
 20
3337.365
 10
-800.381
 20
3328.716
 10
-800
 20
3320
 10
-800
 20
-195
 10
-804
 20
-195
 10
-804
 20
3320
 10
-804.365
 20
3328.367
 10
-805.458
 20
3336.67
 10
-807.271
 20
3344.847
 10
-809.79
 20
3352.834
 10
-812.994
 20
3360.571
 10
-816.862
 20
3368
 10
-821.361
 20
3375.063
 10
-826.46
 20
3381.708
 10
-832.1180000000001
 20
3387.882
 10
-838.292
 20
3393.54
 10
-844.937
 20
3398.639
 10
-852
 20
3403.138
 10
-859.429
 20
3407.006
 10
-867.1660000000001
 20
3410.21
 10
-875.153
 20
3412.729
 10
-883.33
 20
3414.542
 10
-891.633
 20
3415.635
 10
-900
 20
3416
 10
-1500
 20
3416
  0
LWPOLYLINE
  5
62
100
AcDbEntity
  8
6(0)
  6
ByLayer
 62
  256
370
   -1
100
AcDbPolyline
 90
    4
 70
    1
 43
0
 10
-110
 20
-2010
 10
-90
 20
-2010
 10
-90
 20
-1990
 10
-110
 20
-1990
  0
LWPOLYLINE
  5
63
100
AcDbEntity
  8
6(0)
  6
ByLayer
 62
  256
370
   -1
100
AcDbPolyline
 90
    4
 70
    1
 43
0
 10
190
 20
-2110
 10
210
 20
-2110
 10
210
 20
-2090
 10
190
 20
-2090
  0
LWPOLYLINE
  5
64
100
AcDbEntity
  8
6(0)
  6
ByLayer
 62
  256
370
   -1
100
AcDbPolyline
 90
    4
 70
    1
 43
0
 10
290
 20
-1710
 10
310
 20
-1710
 10
310
 20
-1690
 10
290
 20
-1690
  0
LWPOLYLINE
  5
65
100
AcDbEntity
  8
6(0)
  6
ByLayer
 62
  256
370
   -1
100
AcDbPolyline
 90
    4
 70
    1
 43
0
 10
590
 20
-2210
 10
610
 20
-2210
 10
610
 20
-2190
 10
590
 20
-2190
  0
LWPOLYLINE
  5
66
100
AcDbEntity
  8
6(0)
  6
ByLayer
 62
  256
370
   -1
100
AcDbPolyline
 90
    4
 70
    1
 43
0
 10
790
 20
-1810
 10
810
 20
-1810
 10
810
 20
-1790
 10
790
 20
-1790
  0
LWPOLYLINE
  5
67
100
AcDbEntity
  8
6(0)
  6
ByLayer
 62
  256
370
   -1
100
AcDbPolyline
 90
  219
 70
    1
 43
0
 10
300
 20
3396
 10
900
 20
3396
 10
900.78
 20
3395.996
 10
901.5599999999999
 20
3395.984
 10
902.34
 20
3395.964
 10
903.12
 20
3395.936
 10
903.9
 20
3395.9
 10
904.679
 20
3395.856
 10
905.457
 20
3395.804
 10
906.235
 20
3395.744
 10
907.0119999999999
 20
3395.676
 10
907.789
 20
3395.6
 10
908.5650000000001
 20
3395.516
 10
909.34
 20
3395.424
 10
910.1130000000001
 20
3395.324
 10
910.886
 20
3395.216
 10
911.658
 20
3395.101
 10
912.428
 20
3394.977
 10
913.197
 20
3394.845
 10
913.965
 20
3394.706
 10
914.731
 20
3394.559
 10
915.496
 20
3394.403
 10
916.259
 20
3394.24
 10
917.02
 20
3394.07
 10
917.78
 20
3393.891
 10
918.537
 20
3393.705
 10
919.293
 20
3393.51
 10
920.047
 20
3393.308
 10
920.798
 20
3393.099
 10
921.548
 20
3392.881
 10
922.295
 20
3392.656
 10
923.04
 20
3392.424
 10
923.782
 20
3392.183
 10
924.522
 20
3391.935
 10
925.259
 20
3391.68
 10
925.994
 20
3391.417
 10
926.725
 20
3391.146
 10
927.454
 20
3390.868
 10
928.1799999999999
 20
3390.582
 10
928.904
 20
3390.289
 10
929.624
 20
3389.989
 10
930.341
 20
3389.681
 10
931.054
 20
3389.366
 10
931.765
 20
3389.043
 10
932.472
 20
3388.714
 10
933.176
 20
3388.377
 10
933.876
 20
3388.032
 10
934.573
 20
3387.681
 10
935.266
 20
3387.323
 10
935.955
 20
3386.957
 10
936.641
 20
3386.584
 10
937.322
 20
3386.205
 10
938
 20
3385.818
 10
938.674
 20
3385.424
 10
939.343
 20
3385.024
 10
940.009
 20
3384.617
 10
940.67
 20
3384.202
 10
941.327
 20
3383.781
 10
941.98
 20
3383.354
 10
942.628
 20
3382.919
 10
943.272
 20
3382.479
 10
943.9109999999999
 20
3382.031
 10
944.545
 20
3381.577
 10
945.175
 20
3381.116
 10
945.8
 20
3380.649
 10
946.42
 20
3380.176
 10
947.0359999999999
 20
3379.696
 10
947.646
 20
3379.21
 10
948.252
 20
3378.718
 10
948.852
 20
3378.219
 10
949.447
 20
3377.715
 10
950.037
 20
3377.204
 10
950.622
 20
3376.687
 10
951.201
 20
3376.165
 10
951.775
 20
3375.636
 10
952.343
 20
3375.102
 10
952.9059999999999
 20
3374.561
 10
953.4640000000001
 20
3374.015
 10
954.015
 20
3373.464
 10
954.561
 20
3372.906
 10
955.102
 20
3372.343
 10
955.636
 20
3371.775
 10
956.165
 20
3371.201
 10
956.687
 20
3370.622
 10
957.204
 20
3370.037
 10
957.715
 20
3369.447
 10
958.2190000000001
 20
3368.852
 10
958.718
 20
3368.252
 10
959.21
 20
3367.646
 10
959.696
 20
3367.036
 10
960.176
 20
3366.42
 10
960.649
 20
3365.8
 10
961.116
 20
3365.175
 10
961.577
 20
3364.545
 10
962.0309999999999
 20
3363.911
 10
962.479
 20
3363.272
 10
962.919
 20
3362.628
 10
963.354
 20
3361.98
 10
963.7809999999999
 20
3361.327
 10
964.202
 20
3360.67
 10
964.617
 20
3360.009
 10
965.024
 20
3359.343
 10
965.424
 20
3358.674
 10
965.818
 20
3358
 10
966.205
 20
3357.322
 10
966.5839999999999
 20
3356.641
 10
966.957
 20
3355.955
 10
967.323
 20
3355.266
 10
967.681
 20
3354.573
 10
968.032
 20
3353.876
 10
968.377
 20
3353.176
 10
968.7140000000001
 20
3352.472
 10
969.043
 20
3351.765
 10
969.366
 20
3351.054
 10
969.681
 20
3350.341
 10
969.989
 20
3349.624
 10
970.289
 20
3348.904
 10
970.582
 20
3348.18
 10
970.8680000000001
 20
3347.454
 10
971.146
 20
3346.725
 10
971.417
 20
3345.994
 10
971.6799999999999
 20
3345.259
 10
971.9349999999999
 20
3344.522
 10
972.183
 20
3343.782
 10
972.424
 20
3343.04
 10
972.6559999999999
 20
3342.295
 10
972.881
 20
3341.548
 10
973.099
 20
3340.798
 10
973.308
 20
3340.047
 10
973.51
 20
3339.293
 10
973.705
 20
3338.537
 10
973.891
 20
3337.78
 10
974.0700000000001
 20
3337.02
 10
974.24
 20
3336.259
 10
974.403
 20
3335.496
 10
974.559
 20
3334.731
 10
974.706
 20
3333.965
 10
974.845
 20
3333.197
 10
974.977
 20
3332.428
 10
975.101
 20
3331.658
 10
975.216
 20
3330.886
 10
975.324
 20
3330.113
 10
975.424
 20
3329.34
 10
975.516
 20
3328.565
 10
975.6
 20
3327.789
 10
975.676
 20
3327.012
 10
975.744
 20
3326.235
 10
975.804
 20
3325.457
 10
975.856
 20
3324.679
 10
975.9
 20
3323.9
 10
975.936
 20
3323.12
 10
975.9640000000001
 20
3322.34
 10
975.984
 20
3321.56
 10
975.996
 20
3320.78
 10
976
 20
3320
 10
976
 20
175
 10
1020
 20
175
 10
1020
 20
3320
 10
1019.543
 20
3330.459
 10
1018.177
 20
3340.838
 10
1015.911
 20
3351.058
 10
1012.763
 20
3361.042
 10
1008.757
 20
3370.714
 10
1003.923
 20
3380
 10
998.298
 20
3388.829
 10
991.925
 20
3397.135
 10
984.853
 20
3404.853
 10
977.135
 20
3411.925
 10
968.829
 20
3418.298
 10
960
 20
3423.923
 10
950.7140000000001
 20
3428.757
 10
941.042
 20
3432.763
 10
931.058
 20
3435.911
 10
920.838
 20
3438.177
 10
910.4589999999999
 20
3439.543
 10
900
 20
3440
 10
300
 20
3440
 10
300
 20
3420
 10
900
 20
3420
 10
908.716
 20
3419.619
 10
917.365
 20
3418.481
 10
925.8819999999999
 20
3416.593
 10
934.202
 20
3413.969
 10
942.2619999999999
 20
3410.631
 10
950
 20
3406.603
 10
957.3579999999999
 20
3401.915
 10
964.279
 20
3396.604
 10
970.711
 20
3390.711
 10
976.604
 20
3384.279
 10
981.915
 20
3377.358
 10
986.603
 20
3370
 10
990.631
 20
3362.262
 10
993.9690000000001
 20
3354.202
 10
996.593
 20
3345.882
 10
998.481
 20
3337.365
 10
999.619
 20
3328.716
 10
1000
 20
3320
 10
1000
 20
205
 10
996
 20
205
 10
996
 20
3320
 10
995.635
 20
3328.367
 10
994.542
 20
3336.67
 10
992.729
 20
3344.847
 10
990.21
 20
3352.834
 10
987.006
 20
3360.571
 10
983.138
 20
3368
 10
978.639
 20
3375.063
 10
973.54
 20
3381.708
 10
967.8819999999999
 20
3387.882
 10
961.708
 20
3393.54
 10
955.063
 20
3398.639
 10
948
 20
3403.138
 10
940.571
 20
3407.006
 10
932.8339999999999
 20
3410.21
 10
924.847
 20
3412.729
 10
916.67
 20
3414.542
 10
908.367
 20
3415.635
 10
900
 20
3416
 10
300
 20
3416
  0
LWPOLYLINE
  5
68
100
AcDbEntity
  8
6(0)
  6
ByLayer
 62
  256
370
   -1
100
AcDbPolyline
 90
  219
 70
    1
 43
0
 10
2100
 20
3396
 10
2700
 20
3396
 10
2700.78
 20
3395.996
 10
2701.56
 20
3395.984
 10
2702.34
 20
3395.964
 10
2703.12
 20
3395.936
 10
2703.9
 20
3395.9
 10
2704.679
 20
3395.856
 10
2705.457
 20
3395.804
 10
2706.235
 20
3395.744
 10
2707.012
 20
3395.676
 10
2707.789
 20
3395.6
 10
2708.565
 20
3395.516
 10
2709.34
 20
3395.424
 10
2710.113
 20
3395.324
 10
2710.886
 20
3395.216
 10
2711.658
 20
3395.101
 10
2712.428
 20
3394.977
 10
2713.197
 20
3394.845
 10
2713.965
 20
3394.706
 10
2714.731
 20
3394.559
 10
2715.496
 20
3394.403
 10
2716.259
 20
3394.24
 10
2717.02
 20
3394.07
 10
2717.78
 20
3393.891
 10
2718.537
 20
3393.705
 10
2719.293
 20
3393.51
 10
2720.047
 20
3393.308
 10
2720.798
 20
3393.099
 10
2721.548
 20
3392.881
 10
2722.295
 20
3392.656
 10
2723.04
 20
3392.424
 10
2723.782
 20
3392.183
 10
2724.522
 20
3391.935
 10
2725.259
 20
3391.68
 10
2725.994
 20
3391.417
 10
2726.725
 20
3391.146
 10
2727.454
 20
3390.868
 10
2728.18
 20
3390.582
 10
2728.904
 20
3390.289
 10
2729.624
 20
3389.989
 10
2730.341
 20
3389.681
 10
2731.054
 20
3389.366
 10
2731.765
 20
3389.043
 10
2732.472
 20
3388.714
 10
2733.176
 20
3388.377
 10
2733.876
 20
3388.032
 10
2734.573
 20
3387.681
 10
2735.266
 20
3387.323
 10
2735.955
 20
3386.957
 10
2736.641
 20
3386.584
 10
2737.322
 20
3386.205
 10
2738
 20
3385.818
 10
2738.674
 20
3385.424
 10
2739.343
 20
3385.024
 10
2740.009
 20
3384.617
 10
2740.67
 20
3384.202
 10
2741.327
 20
3383.781
 10
2741.98
 20
3383.354
 10
2742.628
 20
3382.919
 10
2743.272
 20
3382.479
 10
2743.911
 20
3382.031
 10
2744.545
 20
3381.577
 10
2745.175
 20
3381.116
 10
2745.8
 20
3380.649
 10
2746.42
 20
3380.176
 10
2747.036
 20
3379.696
 10
2747.646
 20
3379.21
 10
2748.252
 20
3378.718
 10
2748.852
 20
3378.219
 10
2749.447
 20
3377.715
 10
2750.037
 20
3377.204
 10
2750.622
 20
3376.687
 10
2751.201
 20
3376.165
 10
2751.775
 20
3375.636
 10
2752.343
 20
3375.102
 10
2752.906
 20
3374.561
 10
2753.464
 20
3374.015
 10
2754.015
 20
3373.464
 10
2754.561
 20
3372.906
 10
2755.102
 20
3372.343
 10
2755.636
 20
3371.775
 10
2756.165
 20
3371.201
 10
2756.687
 20
3370.622
 10
2757.204
 20
3370.037
 10
2757.715
 20
3369.447
 10
2758.219
 20
3368.852
 10
2758.718
 20
3368.252
 10
2759.21
 20
3367.646
 10
2759.696
 20
3367.036
 10
2760.176
 20
3366.42
 10
2760.649
 20
3365.8
 10
2761.116
 20
3365.175
 10
2761.577
 20
3364.545
 10
2762.031
 20
3363.911
 10
2762.479
 20
3363.272
 10
2762.919
 20
3362.628
 10
2763.354
 20
3361.98
 10
2763.781
 20
3361.327
 10
2764.202
 20
3360.67
 10
2764.617
 20
3360.009
 10
2765.024
 20
3359.343
 10
2765.424
 20
3358.674
 10
2765.818
 20
3358
 10
2766.205
 20
3357.322
 10
2766.584
 20
3356.641
 10
2766.957
 20
3355.955
 10
2767.323
 20
3355.266
 10
2767.681
 20
3354.573
 10
2768.032
 20
3353.876
 10
2768.377
 20
3353.176
 10
2768.714
 20
3352.472
 10
2769.043
 20
3351.765
 10
2769.366
 20
3351.054
 10
2769.681
 20
3350.341
 10
2769.989
 20
3349.624
 10
2770.289
 20
3348.904
 10
2770.582
 20
3348.18
 10
2770.868
 20
3347.454
 10
2771.146
 20
3346.725
 10
2771.417
 20
3345.994
 10
2771.68
 20
3345.259
 10
2771.935
 20
3344.522
 10
2772.183
 20
3343.782
 10
2772.424
 20
3343.04
 10
2772.656
 20
3342.295
 10
2772.881
 20
3341.548
 10
2773.099
 20
3340.798
 10
2773.308
 20
3340.047
 10
2773.51
 20
3339.293
 10
2773.705
 20
3338.537
 10
2773.891
 20
3337.78
 10
2774.07
 20
3337.02
 10
2774.24
 20
3336.259
 10
2774.403
 20
3335.496
 10
2774.559
 20
3334.731
 10
2774.706
 20
3333.965
 10
2774.845
 20
3333.197
 10
2774.977
 20
3332.428
 10
2775.101
 20
3331.658
 10
2775.216
 20
3330.886
 10
2775.324
 20
3330.113
 10
2775.424
 20
3329.34
 10
2775.516
 20
3328.565
 10
2775.6
 20
3327.789
 10
2775.676
 20
3327.012
 10
2775.744
 20
3326.235
 10
2775.804
 20
3325.457
 10
2775.856
 20
3324.679
 10
2775.9
 20
3323.9
 10
2775.936
 20
3323.12
 10
2775.964
 20
3322.34
 10
2775.984
 20
3321.56
 10
2775.996
 20
3320.78
 10
2776
 20
3320
 10
2776
 20
605
 10
2820
 20
605
 10
2820
 20
3320
 10
2819.543
 20
3330.459
 10
2818.177
 20
3340.838
 10
2815.911
 20
3351.058
 10
2812.763
 20
3361.042
 10
2808.757
 20
3370.714
 10
2803.923
 20
3380
 10
2798.298
 20
3388.829
 10
2791.925
 20
3397.135
 10
2784.853
 20
3404.853
 10
2777.135
 20
3411.925
 10
2768.829
 20
3418.298
 10
2760
 20
3423.923
 10
2750.714
 20
3428.757
 10
2741.042
 20
3432.763
 10
2731.058
 20
3435.911
 10
2720.838
 20
3438.177
 10
2710.459
 20
3439.543
 10
2700
 20
3440
 10
2100
 20
3440
 10
2100
 20
3420
 10
2700
 20
3420
 10
2708.716
 20
3419.619
 10
2717.365
 20
3418.481
 10
2725.882
 20
3416.593
 10
2734.202
 20
3413.969
 10
2742.262
 20
3410.631
 10
2750
 20
3406.603
 10
2757.358
 20
3401.915
 10
2764.279
 20
3396.604
 10
2770.711
 20
3390.711
 10
2776.604
 20
3384.279
 10
2781.915
 20
3377.358
 10
2786.603
 20
3370
 10
2790.631
 20
3362.262
 10
2793.969
 20
3354.202
 10
2796.593
 20
3345.882
 10
2798.481
 20
3337.365
 10
2799.619
 20
3328.716
 10
2800
 20
3320
 10
2800
 20
635
 10
2796
 20
635
 10
2796
 20
3320
 10
2795.635
 20
3328.367
 10
2794.542
 20
3336.67
 10
2792.729
 20
3344.847
 10
2790.21
 20
3352.834
 10
2787.006
 20
3360.571
 10
2783.138
 20
3368
 10
2778.639
 20
3375.063
 10
2773.54
 20
3381.708
 10
2767.882
 20
3387.882
 10
2761.708
 20
3393.54
 10
2755.063
 20
3398.639
 10
2748
 20
3403.138
 10
2740.571
 20
3407.006
 10
2732.834
 20
3410.21
 10
2724.847
 20
3412.729
 10
2716.67
 20
3414.542
 10
2708.367
 20
3415.635
 10
2700
 20
3416
 10
2100
 20
3416
  0
LWPOLYLINE
  5
69
100
AcDbEntity
  8
6(0)
  6
ByLayer
 62
  256
370
   -1
100
AcDbPolyline
 90
    4
 70
    1
 43
0
 10
3790
 20
-4500
 10
3810
 20
-4500
 10
3810
 20
-4480
 10
3790
 20
-4480
  0
LWPOLYLINE
  5
6A
100
AcDbEntity
  8
6(0)
  6
ByLayer
 62
  256
370
   -1
100
AcDbPolyline
 90
    4
 70
    1
 43
0
 10
3790
 20
4490
 10
3810
 20
4490
 10
3810
 20
4510
 10
3790
 20
4510
  0
LWPOLYLINE
  5
6B
100
AcDbEntity
  8
6(0)
  6
ByLayer
 62
  256
370
   -1
100
AcDbPolyline
 90
    4
 70
    1
 43
0
 10
4190
 20
-4400
 10
4210
 20
-4400
 10
4210
 20
-4380
 10
4190
 20
-4380
  0
LWPOLYLINE
  5
6C
100
AcDbEntity
  8
6(0)
  6
ByLayer
 62
  256
370
   -1
100
AcDbPolyline
 90
    4
 70
    1
 43
0
 10
4190
 20
4390
 10
4210
 20
4390
 10
4210
 20
4410
 10
4190
 20
4410
  0
LWPOLYLINE
  5
6D
100
AcDbEntity
  8
6(0)
  6
ByLayer
 62
  256
370
   -1
100
AcDbPolyline
 90
    4
 70
    1
 43
0
 10
4290
 20
-4700
 10
4310
 20
-4700
 10
4310
 20
-4680
 10
4290
 20
-4680
  0
LWPOLYLINE
  5
6E
100
AcDbEntity
  8
6(0)
  6
ByLayer
 62
  256
370
   -1
100
AcDbPolyline
 90
    4
 70
    1
 43
0
 10
4290
 20
4690
 10
4310
 20
4690
 10
4310
 20
4710
 10
4290
 20
4710
  0
LWPOLYLINE
  5
6F
100
AcDbEntity
  8
6(0)
  6
ByLayer
 62
  256
370
   -1
100
AcDbPolyline
 90
    4
 70
    1
 43
0
 10
4590
 20
-4600
 10
4610
 20
-4600
 10
4610
 20
-4580
 10
4590
 20
-4580
  0
LWPOLYLINE
  5
70
100
AcDbEntity
  8
6(0)
  6
ByLayer
 62
  256
370
   -1
100
AcDbPolyline
 90
    4
 70
    1
 43
0
 10
4590
 20
4590
 10
4610
 20
4590
 10
4610
 20
4610
 10
4590
 20
4610
  0
LWPOLYLINE
  5
71
100
AcDbEntity
  8
6(0)
  6
ByLayer
 62
  256
370
   -1
100
AcDbPolyline
 90
    4
 70
    1
 43
0
 10
4690
 20
-4300
 10
4710
 20
-4300
 10
4710
 20
-4280
 10
4690
 20
-4280
  0
LWPOLYLINE
  5
72
100
AcDbEntity
  8
6(0)
  6
ByLayer
 62
  256
370
   -1
100
AcDbPolyline
 90
    4
 70
    1
 43
0
 10
4690
 20
4290
 10
4710
 20
4290
 10
4710
 20
4310
 10
4690
 20
4310
  0
ENDBLK
  5
50
330
4E
100
AcDbEntity
  8
0
100
AcDbBlockEnd
  0
BLOCK
  5
52
330
51
100
AcDbEntity
  8
0
100
AcDbBlockBegin
  2
SideCoupledQWResonators_PlusDCBridges_4K_LaserWriter1
 70
    0
 10
0
 20
0
  3
SideCoupledQWResonators_PlusDCBridges_4K_LaserWriter1
  1

  0
INSERT
  5
73
100
AcDbEntity
  8
0
  6
ByLayer
 62
  256
370
   -1
100
AcDbBlockReference
  2
MainSymbol
 10
0
 20
0
 30
0
 41
1
 42
1
 43
0
 50
0
 70
    1
 71
    1
 44
0
 45
0
  0
ENDBLK
  5
53
330
51
100
AcDbEntity
  8
0
100
AcDbBlockEnd
  0
ENDSEC
  0
SECTION
  2
ENTITIES
  0
INSERT
  5
74
100
AcDbEntity
  8
0
  6
ByLayer
 62
  256
370
   -1
100
AcDbBlockReference
  2
SideCoupledQWResonators_PlusDCBridges_4K_LaserWriter1
 10
0
 20
0
 30
0
 41
1
 42
1
 43
0
 50
0
 70
    1
 71
    1
 44
0
 45
0
  0
ENDSEC
  0
SECTION
  2
OBJECTS
  0
DICTIONARY
  5
C
330
0
100
AcDbDictionary
281
    1
  3
ACAD_GROUP
350
D
  0
DICTIONARY
  5
D
330
C
100
AcDbDictionary
281
    1
  0
ENDSEC
  0
EOF
